HIERARCHY
ROOT Hips
{
  OFFSET 43.0842 91.1655 101.099
  CHANNELS 6 Xposition Yposition Zposition Zrotation Xrotation Yrotation
  JOINT LeftUpLeg
  {
    OFFSET 8.64259 1.95398 -2.38835
    CHANNELS 3 Zrotation Xrotation Yrotation
    JOINT LeftLeg
    {
      OFFSET 43.7702 0 0
      CHANNELS 3 Zrotation Xrotation Yrotation
      JOINT LeftFoot
      {
        OFFSET 40.6238 0 0
        CHANNELS 3 Zrotation Xrotation Yrotation
        JOINT LeftToeBase
        {
          OFFSET 12.7242 0 0
          CHANNELS 3 Zrotation Xrotation Yrotation
          End Site
          {
            OFFSET 0 0 0
          }
        }
      }
    }
  }
  JOINT RightUpLeg
  {
    OFFSET -8.2249 1.95398 -2.59336
    CHANNELS 3 Zrotation Xrotation Yrotation
    JOINT RightLeg
    {
      OFFSET 43.5653 0 0
      CHANNELS 3 Zrotation Xrotation Yrotation
      JOINT RightFoot
      {
        OFFSET 40.6238 0 0
        CHANNELS 3 Zrotation Xrotation Yrotation
        JOINT RightToeBase
        {
          OFFSET 12.7242 0 0
          CHANNELS 3 Zrotation Xrotation Yrotation
          End Site
          {
            OFFSET 0 0 0
          }
        }
      }
    }
  }
  JOINT Spine
  {
    OFFSET 0.165834 0.87714 6.61349
    CHANNELS 3 Zrotation Xrotation Yrotation
    JOINT Spine1
    {
      OFFSET 7.38963 1.71661e-005 0
      CHANNELS 3 Zrotation Xrotation Yrotation
      JOINT Spine2
      {
        OFFSET 11.9445 1.14441e-005 0
        CHANNELS 3 Zrotation Xrotation Yrotation
        JOINT Spine3
        {
          OFFSET 14.7254 4.19617e-005 0
          CHANNELS 3 Zrotation Xrotation Yrotation
          JOINT Spine4
          {
            OFFSET 10.9679 0 0
            CHANNELS 3 Zrotation Xrotation Yrotation
            JOINT RightShoulder
            {
              OFFSET 2.46616 -1.6653 3.69651
              CHANNELS 3 Zrotation Xrotation Yrotation
              JOINT RightArm
              {
                OFFSET 13.0012 0 0
                CHANNELS 3 Zrotation Xrotation Yrotation
                JOINT RightForeArm
                {
                  OFFSET 28.7848 1.52588e-005 0
                  CHANNELS 3 Zrotation Xrotation Yrotation
                  JOINT RightHand
                  {
                    OFFSET 26.5688 1.52588e-005 0
                    CHANNELS 3 Zrotation Xrotation Yrotation
                    End Site
                    {
                      OFFSET 0 0 0
                    }
                  }
                }
              }
            }
            JOINT LeftShoulder
            {
              OFFSET 2.38034 -1.29275 -3.7523
              CHANNELS 3 Zrotation Xrotation Yrotation
              JOINT LeftArm
              {
                OFFSET 16.3182 6.10351e-005 0
                CHANNELS 3 Zrotation Xrotation Yrotation
                JOINT LeftForeArm
                {
                  OFFSET 27.0901 0 0
                  CHANNELS 3 Zrotation Xrotation Yrotation
                  JOINT LeftHand
                  {
                    OFFSET 24.5451 1.52588e-005 0
                    CHANNELS 3 Zrotation Xrotation Yrotation
                    End Site
                    {
                      OFFSET 0 0 0
                    }
                  }
                }
              }
            }
            JOINT Neck
            {
              OFFSET 5.0226 -0.0266342 0
              CHANNELS 3 Zrotation Xrotation Yrotation
              JOINT Head
              {
                OFFSET 6.69364 2.86102e-005 0
                CHANNELS 3 Zrotation Xrotation Yrotation
                End Site
                {
                  OFFSET 0 0 0
                }
              }
            }
          }
        }
      }
    }
  }
}
MOTION
Frames:	7
Frame Time:	0.0333333
17.5494 88.6958 48.2703 107.56 -32.1776 114.835 179.046 18.2368 93.3971 -58.5276 43.586 7.05967 64.548 5.1041 19.5678 30.0369 -1.24971 4.59554 172.579 16.949 100.29 -55.3221 4.57035 1.25489 75.5786 -12.7592 -7.59413 46.1322 -7.92299 -8.7732 0.079151 7.76235 -89.0518 11.3409 0.599527 1.82727 -0.331195 0.679339 1.79912 -22.8555 0.0227778 1.92293 -2.84288 0.0227709 1.92294 91.771 -57.7495 -96.6651 28.7145 -7.61488 28.8637 2.70132 20.0612 -56.4035 -36.7271 -10.8529 10.1746 -86.2892 -45.3633 83.5623 -4.29719 -5.28721 -31.5248 11.6048 -2.51022 -103.876 30.2861 4.41336 7.23704 -27.4822 -9.56238 -18.3697 8.40263 -12.8002 -10.2896 
16.3962 89.0639 49.0522 110.996 -30.4684 119.158 179.369 15.4266 96.4045 -60.3284 43.4994 8.76351 64.8028 5.27962 19.1288 29.7968 -1.746 4.82512 176.938 30.7663 95.7498 -47.2442 7.98405 -0.365838 74.6706 -12.8187 -5.70081 46.2976 -7.89632 -9.56148 -0.794982 8.56272 -89.2292 9.75481 -1.2359 1.62632 -1.91669 -1.16317 1.67912 -24.4513 -1.66753 1.17975 -4.43866 -1.66752 1.17975 90.461 -58.1422 -98.4325 28.8025 -8.0267 32.9069 6.38586 24.491 -57.7104 -35.8976 -10.7885 11.3476 -92.1975 -48.1822 75.0047 -1.31651 -8.70142 -48.022 8.76593 5.16199 -85.7002 33.9253 4.95451 5.21876 -28.0385 -5.81727 -18.6437 11.3252 -9.00969 -7.44551 
15.5563 89.9025 49.4662 116.913 -33.1409 126.297 -177.687 11.6626 101.189 -59.1069 42.0868 8.59224 64.8281 4.78124 18.1395 30.239 -0.760628 4.27483 -179.006 40.6096 91.3283 -27.1011 11.4474 0.764805 70.4462 -12.9097 -2.81342 48.8937 -9.6664 -8.44742 -1.20204 9.51264 -89.4925 7.85939 -2.17819 1.11666 -3.81028 -2.12692 1.21146 -26.3595 -2.41305 0.410084 -6.34682 -2.41306 0.410083 90.0976 -55.5808 -99.4572 23.4545 -9.46898 31.4334 9.59666 21.9133 -60.2977 -36.2678 -11.0155 11.7319 -92.1944 -44.6883 74.0499 8.09413 0.885432 -64.1974 8.30935 1.5214 -61.3085 34.7977 4.38469 -1.2488 -25.045 -2.72238 -16.5306 11.9707 -4.90343 -5.22706 
15.4518 91.4899 49.6559 125.788 -35.7001 135.579 -172.324 5.46567 106.793 -54.6433 40.7505 7.26056 64.4492 4.64786 17.0716 30.5843 0.0369334 3.77812 -173.029 50.0632 86.2437 -11.0919 14.8367 2.33494 70.3713 -12.1571 1.58996 50.3413 -10.6643 -7.51769 -1.26284 10.4245 -89.7113 6.02928 -2.40144 0.643642 -5.63966 -2.37077 0.748749 -28.1926 -2.48376 -0.108297 -8.18001 -2.48377 -0.108303 90.1687 -52.1751 -100.078 17.0161 -11.7247 26.8636 9.98804 19.8883 -62.1239 -36.7825 -11.3547 12.3638 -91.6221 -41.8227 74.1675 27.97 6.96706 -77.017 17.3635 -22.1912 -33.8135 34.5976 3.8062 -6.23443 -24.6549 0.433207 -12.7349 12.6132 -1.17654 -4.17271 
15.538 92.8827 50.1915 129.599 -35.0778 141.371 -168.379 2.31184 112.071 -51.9667 41.4135 7.27193 63.2773 3.92248 15.404 31.7586 1.77631 3.54881 -160.104 62.1937 70.7503 -6.03031 18.3592 0.334593 70.8426 -9.28392 3.31765 47.9754 -9.26202 -7.4009 -1.56118 11.1002 -90.0718 4.67001 -3.14874 -0.101607 -6.99712 -3.15019 0.0372076 -29.5605 -2.9725 -1.0441 -9.5478 -2.9725 -1.0441 90.3947 -49.5343 -100.323 9.46595 -15.4335 19.4098 12.2314 24.0796 -62.4772 -37.9517 -11.9058 12.7419 -90.9877 -37.5809 73.9637 39.7817 7.70231 -85.1134 26.597 -37.5746 -7.77901 34.7421 3.96489 -4.91391 -25.5919 2.14215 -9.3436 13.6815 0.748092 -3.93877 
15.9957 93.8868 50.8915 127.18 -31.0264 142.165 -168.114 2.43472 115.825 -52.5226 42.4834 9.51882 61.9008 3.38913 13.3837 33.1254 3.76551 3.26811 -138.145 69.6337 37.9575 -5.92685 19.1118 -0.813304 66.7702 -5.51048 4.05997 43.8617 -7.01212 -6.21502 -2.19907 11.6526 -90.5833 3.54057 -4.62607 -1.15481 -8.12258 -4.6724 -0.949682 -30.7069 -4.06501 -2.49361 -10.6942 -4.06501 -2.49361 90.9337 -46.7877 -100.108 3.23022 -17.6091 11.6988 11.1215 29.384 -60.2063 -37.0479 -11.8233 13.9862 -90.9471 -35.2941 73.3324 41.4967 4.82153 -90.4356 26.9181 -45.5923 0.0583581 35.3062 4.3631 -2.02153 -25.0734 2.52428 -7.8545 14.9619 1.30533 -3.67001 
16.8754 94.7738 52.1029 124.991 -27.4777 144.016 -167.409 4.30402 120.555 -53.8325 40.5953 11.1638 61.1818 3.26984 9.76861 34.4285 5.84958 2.54071 -115.142 69.4082 3.88826 -6.53946 14.483 -2.43229 62.8347 -2.90804 2.57796 42.3456 -6.29712 -5.29849 -2.40438 12.0481 -91.2335 2.70872 -5.28588 -2.48146 -8.95335 -5.38993 -2.24595 -31.5317 -4.29598 -3.95657 -11.5191 -4.29597 -3.95659 91.0753 -44.9218 -100.317 -1.24281 -20.4021 7.53561 7.59835 33.1872 -55.0593 -35.9284 -11.5623 15.0082 -91.9192 -35.951 71.8403 38.8993 2.73779 -93.1604 23.4888 -45.8249 0.131464 35.8736 4.51633 -1.33082 -26.487 2.21395 -7.91637 16.8861 0.879678 -3.37854 
